<?xml version="1.0" encoding="iso-8859-1"?>
<!-- Generator: Adobe Illustrator 19.0.0, SVG Export Plug-In . SVG Version: 6.00 Build 0)  -->
<svg xmlns="http://www.w3.org/2000/svg" xmlns:xlink="http://www.w3.org/1999/xlink" version="1.1" id="Layer_1" x="0px" y="0px" viewBox="0 0 512 512" style="enable-background:new 0 0 512 512;" xml:space="preserve">
<path style="fill:#4E342E;" d="M17.067,68.267h477.867c4.71,0,8.533,3.823,8.533,8.533v358.4c0,4.71-3.823,8.533-8.533,8.533H17.067  c-4.71,0-8.533-3.823-8.533-8.533V76.8C8.533,72.09,12.356,68.267,17.067,68.267z"/>
<path style="fill:#795548;" d="M17.067,68.267H460.8c4.71,0,8.533,3.823,8.533,8.533v358.4c0,4.71-3.823,8.533-8.533,8.533H17.067  c-4.71,0-8.533-3.823-8.533-8.533V76.8C8.533,72.09,12.356,68.267,17.067,68.267z"/>
<path d="M494.933,452.267H17.067C7.637,452.267,0,444.629,0,435.2V76.8c0-9.429,7.637-17.067,17.067-17.067h477.867  c9.429,0,17.067,7.637,17.067,17.067v358.4C512,444.629,504.363,452.267,494.933,452.267z M17.067,76.8v358.4h477.867V76.8H17.067z"/>
<path d="M256,452.267c-4.71,0-8.533-3.823-8.533-8.533V68.267c0-4.71,3.823-8.533,8.533-8.533c4.71,0,8.533,3.823,8.533,8.533  v375.467C264.533,448.444,260.71,452.267,256,452.267z"/>
<g>
	<path style="fill:#0377BC;" d="M51.2,102.4h162.133c4.71,0,8.533,3.823,8.533,8.533v290.133c0,4.71-3.823,8.533-8.533,8.533H51.2   c-4.71,0-8.533-3.823-8.533-8.533V110.933C42.667,106.223,46.49,102.4,51.2,102.4z"/>
	<path style="fill:#0377BC;" d="M298.667,102.4H460.8c4.71,0,8.533,3.823,8.533,8.533v290.133c0,4.71-3.823,8.533-8.533,8.533   H298.667c-4.71,0-8.533-3.823-8.533-8.533V110.933C290.133,106.223,293.956,102.4,298.667,102.4z"/>
</g>
<g>
	<path style="fill:#02A9F4;" d="M50.005,102.4h138.923c4.369,0.367,7.637,4.164,7.339,8.533v290.133   c0.299,4.369-2.97,8.166-7.339,8.533H50.005c-4.369-0.367-7.637-4.164-7.339-8.533V110.933   C42.368,106.564,45.636,102.767,50.005,102.4z"/>
	<path style="fill:#02A9F4;" d="M297.472,102.4h138.923c4.369,0.367,7.637,4.164,7.339,8.533v290.133   c0.299,4.369-2.97,8.166-7.339,8.533H297.472c-4.369-0.367-7.637-4.164-7.339-8.533V110.933   C289.835,106.564,293.103,102.767,297.472,102.4z"/>
</g>
<path d="M213.333,418.133H51.2c-9.429,0-17.067-7.637-17.067-17.067V110.933c0-9.429,7.637-17.067,17.067-17.067h162.133  c9.429,0,17.067,7.637,17.067,17.067v290.133C230.4,410.496,222.763,418.133,213.333,418.133z M51.2,110.933L51.2,110.933v290.133  h162.133V110.933H51.2z"/>
<path d="M460.8,418.133H298.667c-9.429,0-17.067-7.637-17.067-17.067V110.933c0-9.429,7.637-17.067,17.067-17.067H460.8  c9.429,0,17.067,7.637,17.067,17.067v290.133C477.867,410.496,470.229,418.133,460.8,418.133z M298.667,110.933L298.667,110.933  v290.133H460.8V110.933H298.667z"/>
<path d="M324.267,281.6c-1.843,0-3.644-0.597-5.12-1.707l-34.133-25.6c-3.772-2.825-4.531-8.175-1.707-11.947  s8.175-4.531,11.947-1.707l34.133,25.6c3.772,2.825,4.531,8.175,1.707,11.947C329.481,280.337,326.955,281.6,324.267,281.6z"/>
<path d="M76.8,145.067c-4.71-0.026-8.516-3.866-8.491-8.576c0.009-1.101,0.222-2.185,0.64-3.2c0.41-1.05,1.015-2.005,1.792-2.816  c3.319-3.345,8.721-3.371,12.066-0.051c0.017,0.017,0.034,0.034,0.051,0.051c0.777,0.811,1.382,1.766,1.792,2.816  c1.792,4.361-0.29,9.344-4.651,11.136C78.985,144.845,77.901,145.058,76.8,145.067z"/>
<path d="M162.133,145.067h-51.2c-4.71,0-8.533-3.823-8.533-8.533s3.823-8.533,8.533-8.533h51.2c4.71,0,8.533,3.823,8.533,8.533  S166.844,145.067,162.133,145.067z"/>
<path d="M290.133,145.067c-4.71,0-8.533-3.823-8.533-8.533c-0.034-1.118,0.205-2.227,0.683-3.243  c0.435-1.033,1.041-1.988,1.792-2.816c3.319-3.345,8.721-3.371,12.066-0.051c0.017,0.017,0.034,0.034,0.051,0.051  c0.751,0.828,1.357,1.783,1.792,2.816c1.34,3.174,0.631,6.844-1.792,9.301c-0.845,0.751-1.801,1.382-2.816,1.877  C292.343,144.879,291.243,145.084,290.133,145.067z"/>
<path d="M375.467,145.067h-51.2c-4.71,0-8.533-3.823-8.533-8.533s3.823-8.533,8.533-8.533h51.2c4.71,0,8.533,3.823,8.533,8.533  S380.177,145.067,375.467,145.067z"/>
<g>
</g>
<g>
</g>
<g>
</g>
<g>
</g>
<g>
</g>
<g>
</g>
<g>
</g>
<g>
</g>
<g>
</g>
<g>
</g>
<g>
</g>
<g>
</g>
<g>
</g>
<g>
</g>
<g>
</g>
</svg>
